<svg width="40" height="40" fill="none" xmlns="http://www.w3.org/2000/svg"><path d="M38.162 14.718H29.19l-6.306-12.16a1.827 1.827 0 00-1.077-.906A1.826 1.826 0 0020 2.06a1.832 1.832 0 00-1.808-.408c-.468.149-.85.47-1.077.906l-6.647 12.817a1.826 1.826 0 00.091 1.848H1.84a.667.667 0 010-1.333h6.68a.586.586 0 100-1.172H1.84A1.84 1.84 0 000 16.556c0 .84.567 1.55 1.34 1.769l3.393 18.1a2.466 2.466 0 002.422 2.01h25.69a2.466 2.466 0 002.422-2.01l3.394-18.1A1.841 1.841 0 0040 16.556a1.84 1.84 0 00-1.838-1.838zM20.946 2.813a.662.662 0 01.508-.044c.17.054.308.171.39.329l6.647 12.817a.662.662 0 01-.284.898.662.662 0 01-.509.044.662.662 0 01-.39-.328L20.661 3.712a.667.667 0 01.285-.899zm7.802 15.582l-.554 5.717h-7.608v-5.717h8.162zM20 4.983l6.268 12.085c.027.053.058.105.09.155H13.642c.032-.05.063-.102.09-.155l.611-1.178h8.919a.586.586 0 100-1.172h-8.31L20 4.983zm-8.492 10.932l6.648-12.817a.662.662 0 01.592-.36.667.667 0 01.591.974l-6.647 12.816a.662.662 0 01-.39.329.662.662 0 01-.509-.044.662.662 0 01-.328-.39.662.662 0 01.043-.508zm-8.964 2.48h7.53l.555 5.717H3.616l-1.072-5.717zm1.292 6.888h6.906L11.297 31H4.908l-1.072-5.717zm3.32 11.98a1.293 1.293 0 01-1.271-1.055l-.757-4.036h6.283l.493 5.091H7.155zm12.258 0h-6.333l-.493-5.09h6.826v5.09zm0-6.263h-6.94l-.554-5.717h7.494V31zm0-6.888h-7.608l-.554-5.717h8.162v5.717zm7.505 13.151h-6.333v-5.09h6.826l-.493 5.09zM27.526 31h-6.94v-5.716h7.494L27.526 31zm6.59 5.208a1.293 1.293 0 01-1.271 1.055h-4.75l.495-5.09h6.282l-.757 4.035zM35.091 31h-6.389l.555-5.716h6.906L35.092 31zm1.292-6.889H29.37l.555-5.716h7.53l-1.072 5.716zm1.778-6.888H29.44a1.844 1.844 0 00.268-1.333h8.453a.667.667 0 010 1.333z" fill="#688800"/></svg>