<svg width="32" height="32" fill="none" xmlns="http://www.w3.org/2000/svg"><path d="M27.31 4.686A15.891 15.891 0 0015.997 0c-4.273 0-8.29 1.664-11.311 4.686A15.897 15.897 0 000 16c0 2.94.804 5.815 2.326 8.313a.469.469 0 00.8-.487A15.036 15.036 0 01.939 16c0-4.023 1.566-7.806 4.41-10.65A14.96 14.96 0 0115.998.937a14.96 14.96 0 0110.649 4.411A14.965 14.965 0 0131.056 16c0 4.023-1.566 7.806-4.41 10.65a14.96 14.96 0 01-10.65 4.413 14.99 14.99 0 01-11.794-5.696.469.469 0 00-.734.584A15.923 15.923 0 0015.998 32a15.89 15.89 0 0011.311-4.686A15.897 15.897 0 0031.995 16c0-4.274-1.664-8.292-4.686-11.314z" fill="#688800"/><path d="M13.429 13.288l1.608-1.21a.882.882 0 00.345-.815 9.24 9.24 0 01-.074-1.297c.013-.927-.689-1.753-1.598-1.88l-1.401-.198c-.95-.134-1.827.12-2.473.715-.647.596-.972 1.452-.916 2.41a15.57 15.57 0 00.856 4.262 15.62 15.62 0 005.707 7.58 15.553 15.553 0 003.86 2.002c.367.129.736.193 1.095.193.524 0 1.026-.137 1.472-.408.75-.456 1.238-1.23 1.371-2.18l.194-1.372c.128-.91-.483-1.846-1.362-2.085a9.222 9.222 0 01-1.212-.423.91.91 0 00-.904.11l-1.596 1.201a.408.408 0 01-.474.014 11.856 11.856 0 01-2.43-2.187.469.469 0 10-.717.604c.763.906 1.645 1.7 2.622 2.36a1.346 1.346 0 001.563-.042l1.583-1.191c.427.182.87.336 1.319.459.424.115.742.606.68 1.05l-.194 1.372c-.094.665-.424 1.201-.93 1.509-.506.308-1.135.354-1.77.131a14.626 14.626 0 01-3.626-1.88 14.689 14.689 0 01-5.366-7.128 14.633 14.633 0 01-.805-4.006c-.04-.672.179-1.264.615-1.665.436-.402 1.041-.57 1.707-.477l1.401.198c.436.06.798.491.792.939-.006.465.02.934.077 1.395l-1.583 1.191c-.46.347-.65.946-.472 1.491.273.84.636 1.657 1.078 2.425a.47.47 0 00.813-.467 11.844 11.844 0 01-1-2.247.409.409 0 01.145-.453z" fill="#688800"/></svg>